%FSLAX45Y45*%
G04 Gerber Fmt 4.5, Leading zero omitted, Abs format (unit mm)*
G04 Created by KiCad (PCBNEW 5.1.10-88a1d61d58~88~ubuntu18.04.1) date 2021-09-30 23:52:21*
%MOMM*%
%LPD*%
G01*
G04 APERTURE LIST*
%TA.AperFunction,Profile*%
%ADD10C,0.150000*%
%TD*%
%ADD11C,0.200000*%
%ADD12C,0.300000*%
G04 APERTURE END LIST*
D10*
X14930000Y-1289000D02*
X14794000Y-1153000D01*
X9767000Y-1288000D02*
X9902000Y-1153000D01*
X10450000Y-4278000D02*
X9767000Y-3595000D01*
X14247000Y-4278000D02*
X10450000Y-4278000D01*
X14930000Y-1289000D02*
X14930000Y-3595000D01*
X9902000Y-1153000D02*
X14794000Y-1153000D01*
X9767000Y-3595000D02*
X9767000Y-1288000D01*
X14930000Y-3595000D02*
X14247000Y-4278000D01*
D11*
D12*
X10045928Y-4751214D02*
X10045928Y-4451214D01*
X10117357Y-4451214D01*
X10160214Y-4465500D01*
X10188786Y-4494072D01*
X10203071Y-4522643D01*
X10217357Y-4579786D01*
X10217357Y-4622643D01*
X10203071Y-4679786D01*
X10188786Y-4708357D01*
X10160214Y-4736929D01*
X10117357Y-4751214D01*
X10045928Y-4751214D01*
X10345928Y-4751214D02*
X10345928Y-4551214D01*
X10345928Y-4608357D02*
X10360214Y-4579786D01*
X10374500Y-4565500D01*
X10403071Y-4551214D01*
X10431643Y-4551214D01*
X10531643Y-4751214D02*
X10531643Y-4551214D01*
X10531643Y-4451214D02*
X10517357Y-4465500D01*
X10531643Y-4479786D01*
X10545928Y-4465500D01*
X10531643Y-4451214D01*
X10531643Y-4479786D01*
X10717357Y-4751214D02*
X10688786Y-4736929D01*
X10674500Y-4708357D01*
X10674500Y-4451214D01*
X10874500Y-4751214D02*
X10845928Y-4736929D01*
X10831643Y-4708357D01*
X10831643Y-4451214D01*
X11217357Y-4751214D02*
X11217357Y-4451214D01*
X11317357Y-4665500D01*
X11417357Y-4451214D01*
X11417357Y-4751214D01*
X11688786Y-4751214D02*
X11688786Y-4594072D01*
X11674500Y-4565500D01*
X11645928Y-4551214D01*
X11588786Y-4551214D01*
X11560214Y-4565500D01*
X11688786Y-4736929D02*
X11660214Y-4751214D01*
X11588786Y-4751214D01*
X11560214Y-4736929D01*
X11545928Y-4708357D01*
X11545928Y-4679786D01*
X11560214Y-4651214D01*
X11588786Y-4636929D01*
X11660214Y-4636929D01*
X11688786Y-4622643D01*
X11831643Y-4551214D02*
X11831643Y-4851214D01*
X11831643Y-4565500D02*
X11860214Y-4551214D01*
X11917357Y-4551214D01*
X11945928Y-4565500D01*
X11960214Y-4579786D01*
X11974500Y-4608357D01*
X11974500Y-4694072D01*
X11960214Y-4722643D01*
X11945928Y-4736929D01*
X11917357Y-4751214D01*
X11860214Y-4751214D01*
X11831643Y-4736929D01*
X12103071Y-4722643D02*
X12117357Y-4736929D01*
X12103071Y-4751214D01*
X12088786Y-4736929D01*
X12103071Y-4722643D01*
X12103071Y-4751214D01*
X12103071Y-4565500D02*
X12117357Y-4579786D01*
X12103071Y-4594072D01*
X12088786Y-4579786D01*
X12103071Y-4565500D01*
X12103071Y-4594072D01*
M02*
