M48
; DRILL file {KiCad 5.1.10-88a1d61d58~88~ubuntu18.04.1} date Thu Sep 30 23:52:22 2021
; FORMAT={-:-/ absolute / inch / decimal}
; #@! TF.CreationDate,2021-09-30T23:52:22+02:00
; #@! TF.GenerationSoftware,Kicad,Pcbnew,5.1.10-88a1d61d58~88~ubuntu18.04.1
; #@! TF.FileFunction,Plated,1,2,PTH
FMAT,2
INCH
T1C0.0157
T2C0.0276
T3C0.0315
T4C0.0433
%
G90
G05
T1
X4.161Y-0.9425
X4.2724Y-1.4181
X4.548Y-0.688
X4.8776Y-1.4583
X4.9165Y-0.8304
X4.9266Y-0.8736
X5.1161Y-1.4406
X5.137Y-0.8949
X5.1453Y-1.5673
X5.3756Y-1.4441
X5.5988Y-0.9358
X5.7071Y-1.2949
T2
X5.2272Y-1.55
X5.2772Y-1.5
X5.2772Y-1.6
X5.5528Y-1.4866
X5.5528Y-1.5866
X5.6028Y-1.5366
T3
X3.9085Y-0.5477
X3.9085Y-1.1477
X4.0085Y-0.5477
X4.0085Y-1.1477
X4.1085Y-0.5477
X4.1085Y-1.1477
X4.2085Y-0.5477
X4.2085Y-1.1477
X4.3067Y-0.6394
X4.3067Y-1.2394
X4.3085Y-0.5477
X4.3085Y-1.1477
X4.4067Y-0.6394
X4.4067Y-1.2394
X4.4085Y-0.5477
X4.4085Y-1.1477
X4.4543Y-0.7799
X4.4559Y-0.9461
X4.5067Y-0.6394
X4.5067Y-1.2394
X4.5085Y-0.5477
X4.5085Y-1.1477
X4.6067Y-0.6394
X4.6067Y-1.2394
X4.6085Y-0.5477
X4.6085Y-1.1477
X4.7067Y-0.6394
X4.7067Y-1.2394
X4.7085Y-0.5477
X4.7085Y-1.1477
X4.7543Y-0.7799
X4.7547Y-0.8618
X4.7547Y-1.0307
X4.7559Y-0.9461
X4.8067Y-0.6394
X4.8067Y-1.2394
X4.8085Y-0.5477
X4.8085Y-1.1477
X4.9067Y-0.6394
X4.9067Y-1.2394
X4.9085Y-0.5477
X4.9085Y-1.1477
X5.0067Y-0.6394
X5.0067Y-1.2394
X5.0085Y-0.5477
X5.0085Y-1.1477
X5.0547Y-0.8618
X5.0547Y-1.0307
X5.1067Y-0.6394
X5.1067Y-1.2394
X5.1085Y-0.5477
X5.1085Y-1.1477
X5.2067Y-0.6394
X5.2067Y-1.2394
X5.2085Y-0.5477
X5.2085Y-1.1477
X5.265Y-0.7465
X5.265Y-1.0465
X5.3067Y-0.6394
X5.3067Y-1.2394
X5.3085Y-0.5477
X5.3085Y-1.1477
X5.3713Y-0.7469
X5.3713Y-1.0469
X5.4067Y-0.6394
X5.4067Y-1.2394
X5.4085Y-0.5477
X5.4085Y-1.1477
X5.478Y-0.748
X5.478Y-1.048
X5.5067Y-0.6394
X5.5067Y-1.2394
X5.5085Y-0.5477
X5.5085Y-1.1477
X5.585Y-0.7469
X5.585Y-1.0469
X5.6067Y-0.6394
X5.6067Y-1.2394
X5.6085Y-0.5477
X5.6085Y-1.1477
X5.6921Y-0.748
X5.6921Y-1.048
X5.7085Y-0.5477
X5.7085Y-1.1477
X5.7992Y-0.7469
X5.7992Y-1.0469
X5.8085Y-0.5477
X5.8085Y-1.1477
T4
X4.7224Y-1.478
X4.7236Y-1.6114
X5.0224Y-1.478
X5.0236Y-1.6114
T0
M30
