G04 #@! TF.GenerationSoftware,KiCad,Pcbnew,5.1.10-88a1d61d58~88~ubuntu18.04.1*
G04 #@! TF.CreationDate,2021-09-30T23:52:24+02:00*
G04 #@! TF.ProjectId,adapt_prog_eprom-fat,61646170-745f-4707-926f-675f6570726f,rev?*
G04 #@! TF.SameCoordinates,Original*
G04 #@! TF.FileFunction,Soldermask,Bot*
G04 #@! TF.FilePolarity,Negative*
%FSLAX46Y46*%
G04 Gerber Fmt 4.6, Leading zero omitted, Abs format (unit mm)*
G04 Created by KiCad (PCBNEW 5.1.10-88a1d61d58~88~ubuntu18.04.1) date 2021-09-30 23:52:24*
%MOMM*%
%LPD*%
G01*
G04 APERTURE LIST*
%ADD10O,2.302000X2.302000*%
%ADD11O,1.702000X1.702000*%
%ADD12O,1.302000X1.302000*%
%ADD13O,1.302000X1.702000*%
%ADD14C,1.702000*%
G04 APERTURE END LIST*
G36*
G01*
X128751000Y-39830000D02*
X128751000Y-42030000D01*
G75*
G02*
X128700000Y-42081000I-51000J0D01*
G01*
X126500000Y-42081000D01*
G75*
G02*
X126449000Y-42030000I0J51000D01*
G01*
X126449000Y-39830000D01*
G75*
G02*
X126500000Y-39779000I51000J0D01*
G01*
X128700000Y-39779000D01*
G75*
G02*
X128751000Y-39830000I0J-51000D01*
G01*
G37*
D10*
X119980000Y-40930000D03*
X127570000Y-37540000D03*
G36*
G01*
X118799000Y-38640000D02*
X118799000Y-36440000D01*
G75*
G02*
X118850000Y-36389000I51000J0D01*
G01*
X121050000Y-36389000D01*
G75*
G02*
X121101000Y-36440000I0J-51000D01*
G01*
X121101000Y-38640000D01*
G75*
G02*
X121050000Y-38691000I-51000J0D01*
G01*
X118850000Y-38691000D01*
G75*
G02*
X118799000Y-38640000I0J51000D01*
G01*
G37*
G36*
G01*
X135630000Y-18119000D02*
X137230000Y-18119000D01*
G75*
G02*
X137281000Y-18170000I0J-51000D01*
G01*
X137281000Y-19770000D01*
G75*
G02*
X137230000Y-19821000I-51000J0D01*
G01*
X135630000Y-19821000D01*
G75*
G02*
X135579000Y-19770000I0J51000D01*
G01*
X135579000Y-18170000D01*
G75*
G02*
X135630000Y-18119000I51000J0D01*
G01*
G37*
D11*
X136430000Y-26590000D03*
X133730000Y-26580000D03*
G36*
G01*
X132930000Y-18109000D02*
X134530000Y-18109000D01*
G75*
G02*
X134581000Y-18160000I0J-51000D01*
G01*
X134581000Y-19760000D01*
G75*
G02*
X134530000Y-19811000I-51000J0D01*
G01*
X132930000Y-19811000D01*
G75*
G02*
X132879000Y-19760000I0J51000D01*
G01*
X132879000Y-18160000D01*
G75*
G02*
X132930000Y-18109000I51000J0D01*
G01*
G37*
X141860000Y-26590000D03*
G36*
G01*
X141060000Y-18119000D02*
X142660000Y-18119000D01*
G75*
G02*
X142711000Y-18170000I0J-51000D01*
G01*
X142711000Y-19770000D01*
G75*
G02*
X142660000Y-19821000I-51000J0D01*
G01*
X141060000Y-19821000D01*
G75*
G02*
X141009000Y-19770000I0J51000D01*
G01*
X141009000Y-18170000D01*
G75*
G02*
X141060000Y-18119000I51000J0D01*
G01*
G37*
G36*
G01*
X139940000Y-27471000D02*
X138340000Y-27471000D01*
G75*
G02*
X138289000Y-27420000I0J51000D01*
G01*
X138289000Y-25820000D01*
G75*
G02*
X138340000Y-25769000I51000J0D01*
G01*
X139940000Y-25769000D01*
G75*
G02*
X139991000Y-25820000I0J-51000D01*
G01*
X139991000Y-27420000D01*
G75*
G02*
X139940000Y-27471000I-51000J0D01*
G01*
G37*
X139140000Y-19000000D03*
X144580000Y-19000000D03*
G36*
G01*
X145380000Y-27471000D02*
X143780000Y-27471000D01*
G75*
G02*
X143729000Y-27420000I0J51000D01*
G01*
X143729000Y-25820000D01*
G75*
G02*
X143780000Y-25769000I51000J0D01*
G01*
X145380000Y-25769000D01*
G75*
G02*
X145431000Y-25820000I0J-51000D01*
G01*
X145431000Y-27420000D01*
G75*
G02*
X145380000Y-27471000I-51000J0D01*
G01*
G37*
G36*
G01*
X146500000Y-18119000D02*
X148100000Y-18119000D01*
G75*
G02*
X148151000Y-18170000I0J-51000D01*
G01*
X148151000Y-19770000D01*
G75*
G02*
X148100000Y-19821000I-51000J0D01*
G01*
X146500000Y-19821000D01*
G75*
G02*
X146449000Y-19770000I0J51000D01*
G01*
X146449000Y-18170000D01*
G75*
G02*
X146500000Y-18119000I51000J0D01*
G01*
G37*
X147300000Y-26590000D03*
D12*
X141040000Y-37760000D03*
X142310000Y-39030000D03*
D13*
X141040000Y-40300000D03*
X134040000Y-38100000D03*
D12*
X132770000Y-39370000D03*
X134040000Y-40640000D03*
D11*
X120770000Y-26180000D03*
D14*
X128390000Y-26180000D03*
X120800000Y-24030000D03*
D11*
X113180000Y-24030000D03*
X120770000Y-21890000D03*
D14*
X128390000Y-21890000D03*
X120760000Y-19810000D03*
D11*
X113140000Y-19810000D03*
X147535000Y-29151000D03*
X99275000Y-13911000D03*
X144995000Y-29151000D03*
X101815000Y-13911000D03*
X142455000Y-29151000D03*
X104355000Y-13911000D03*
X139915000Y-29151000D03*
X106895000Y-13911000D03*
X137375000Y-29151000D03*
X109435000Y-13911000D03*
X134835000Y-29151000D03*
X111975000Y-13911000D03*
X132295000Y-29151000D03*
X114515000Y-13911000D03*
X129755000Y-29151000D03*
X117055000Y-13911000D03*
X127215000Y-29151000D03*
X119595000Y-13911000D03*
X124675000Y-29151000D03*
X122135000Y-13911000D03*
X122135000Y-29151000D03*
X124675000Y-13911000D03*
X119595000Y-29151000D03*
X127215000Y-13911000D03*
X117055000Y-29151000D03*
X129755000Y-13911000D03*
X114515000Y-29151000D03*
X132295000Y-13911000D03*
X111975000Y-29151000D03*
X134835000Y-13911000D03*
X109435000Y-29151000D03*
X137375000Y-13911000D03*
X106895000Y-29151000D03*
X139915000Y-13911000D03*
X104355000Y-29151000D03*
X142455000Y-13911000D03*
X101815000Y-29151000D03*
X144995000Y-13911000D03*
X99275000Y-29151000D03*
G36*
G01*
X146735000Y-13060000D02*
X148335000Y-13060000D01*
G75*
G02*
X148386000Y-13111000I0J-51000D01*
G01*
X148386000Y-14711000D01*
G75*
G02*
X148335000Y-14762000I-51000J0D01*
G01*
X146735000Y-14762000D01*
G75*
G02*
X146684000Y-14711000I0J51000D01*
G01*
X146684000Y-13111000D01*
G75*
G02*
X146735000Y-13060000I51000J0D01*
G01*
G37*
X109390000Y-16240000D03*
X142410000Y-31480000D03*
X111930000Y-16240000D03*
X139870000Y-31480000D03*
X114470000Y-16240000D03*
X137330000Y-31480000D03*
X117010000Y-16240000D03*
X134790000Y-31480000D03*
X119550000Y-16240000D03*
X132250000Y-31480000D03*
X122090000Y-16240000D03*
X129710000Y-31480000D03*
X124630000Y-16240000D03*
X127170000Y-31480000D03*
X127170000Y-16240000D03*
X124630000Y-31480000D03*
X129710000Y-16240000D03*
X122090000Y-31480000D03*
X132250000Y-16240000D03*
X119550000Y-31480000D03*
X134790000Y-16240000D03*
X117010000Y-31480000D03*
X137330000Y-16240000D03*
X114470000Y-31480000D03*
X139870000Y-16240000D03*
X111930000Y-31480000D03*
X142410000Y-16240000D03*
G36*
G01*
X110190000Y-32331000D02*
X108590000Y-32331000D01*
G75*
G02*
X108539000Y-32280000I0J51000D01*
G01*
X108539000Y-30680000D01*
G75*
G02*
X108590000Y-30629000I51000J0D01*
G01*
X110190000Y-30629000D01*
G75*
G02*
X110241000Y-30680000I0J-51000D01*
G01*
X110241000Y-32280000D01*
G75*
G02*
X110190000Y-32331000I-51000J0D01*
G01*
G37*
M02*
