G04 #@! TF.GenerationSoftware,KiCad,Pcbnew,5.1.10-88a1d61d58~88~ubuntu18.04.1*
G04 #@! TF.CreationDate,2021-09-30T23:52:24+02:00*
G04 #@! TF.ProjectId,adapt_prog_eprom-fat,61646170-745f-4707-926f-675f6570726f,rev?*
G04 #@! TF.SameCoordinates,Original*
G04 #@! TF.FileFunction,Copper,L2,Bot*
G04 #@! TF.FilePolarity,Positive*
%FSLAX46Y46*%
G04 Gerber Fmt 4.6, Leading zero omitted, Abs format (unit mm)*
G04 Created by KiCad (PCBNEW 5.1.10-88a1d61d58~88~ubuntu18.04.1) date 2021-09-30 23:52:24*
%MOMM*%
%LPD*%
G01*
G04 APERTURE LIST*
G04 #@! TA.AperFunction,ComponentPad*
%ADD10R,2.200000X2.200000*%
G04 #@! TD*
G04 #@! TA.AperFunction,ComponentPad*
%ADD11O,2.200000X2.200000*%
G04 #@! TD*
G04 #@! TA.AperFunction,ComponentPad*
%ADD12R,1.600000X1.600000*%
G04 #@! TD*
G04 #@! TA.AperFunction,ComponentPad*
%ADD13O,1.600000X1.600000*%
G04 #@! TD*
G04 #@! TA.AperFunction,ComponentPad*
%ADD14O,1.200000X1.200000*%
G04 #@! TD*
G04 #@! TA.AperFunction,ComponentPad*
%ADD15O,1.200000X1.600000*%
G04 #@! TD*
G04 #@! TA.AperFunction,ComponentPad*
%ADD16C,1.600000*%
G04 #@! TD*
G04 #@! TA.AperFunction,ViaPad*
%ADD17C,0.800000*%
G04 #@! TD*
G04 #@! TA.AperFunction,Conductor*
%ADD18C,0.250000*%
G04 #@! TD*
G04 #@! TA.AperFunction,Conductor*
%ADD19C,0.254000*%
G04 #@! TD*
G04 #@! TA.AperFunction,Conductor*
%ADD20C,0.100000*%
G04 #@! TD*
G04 APERTURE END LIST*
D10*
X127600000Y-40930000D03*
D11*
X119980000Y-40930000D03*
X127570000Y-37540000D03*
D10*
X119950000Y-37540000D03*
D12*
X136430000Y-18970000D03*
D13*
X136430000Y-26590000D03*
X133730000Y-26580000D03*
D12*
X133730000Y-18960000D03*
D13*
X141860000Y-26590000D03*
D12*
X141860000Y-18970000D03*
X139140000Y-26620000D03*
D13*
X139140000Y-19000000D03*
X144580000Y-19000000D03*
D12*
X144580000Y-26620000D03*
X147300000Y-18970000D03*
D13*
X147300000Y-26590000D03*
D14*
X141040000Y-37760000D03*
X142310000Y-39030000D03*
D15*
X141040000Y-40300000D03*
X134040000Y-38100000D03*
D14*
X132770000Y-39370000D03*
X134040000Y-40640000D03*
D13*
X120770000Y-26180000D03*
D16*
X128390000Y-26180000D03*
X120800000Y-24030000D03*
D13*
X113180000Y-24030000D03*
X120770000Y-21890000D03*
D16*
X128390000Y-21890000D03*
X120760000Y-19810000D03*
D13*
X113140000Y-19810000D03*
X147535000Y-29151000D03*
X99275000Y-13911000D03*
X144995000Y-29151000D03*
X101815000Y-13911000D03*
X142455000Y-29151000D03*
X104355000Y-13911000D03*
X139915000Y-29151000D03*
X106895000Y-13911000D03*
X137375000Y-29151000D03*
X109435000Y-13911000D03*
X134835000Y-29151000D03*
X111975000Y-13911000D03*
X132295000Y-29151000D03*
X114515000Y-13911000D03*
X129755000Y-29151000D03*
X117055000Y-13911000D03*
X127215000Y-29151000D03*
X119595000Y-13911000D03*
X124675000Y-29151000D03*
X122135000Y-13911000D03*
X122135000Y-29151000D03*
X124675000Y-13911000D03*
X119595000Y-29151000D03*
X127215000Y-13911000D03*
X117055000Y-29151000D03*
X129755000Y-13911000D03*
X114515000Y-29151000D03*
X132295000Y-13911000D03*
X111975000Y-29151000D03*
X134835000Y-13911000D03*
X109435000Y-29151000D03*
X137375000Y-13911000D03*
X106895000Y-29151000D03*
X139915000Y-13911000D03*
X104355000Y-29151000D03*
X142455000Y-13911000D03*
X101815000Y-29151000D03*
X144995000Y-13911000D03*
X99275000Y-29151000D03*
D12*
X147535000Y-13911000D03*
D13*
X109390000Y-16240000D03*
X142410000Y-31480000D03*
X111930000Y-16240000D03*
X139870000Y-31480000D03*
X114470000Y-16240000D03*
X137330000Y-31480000D03*
X117010000Y-16240000D03*
X134790000Y-31480000D03*
X119550000Y-16240000D03*
X132250000Y-31480000D03*
X122090000Y-16240000D03*
X129710000Y-31480000D03*
X124630000Y-16240000D03*
X127170000Y-31480000D03*
X127170000Y-16240000D03*
X124630000Y-31480000D03*
X129710000Y-16240000D03*
X122090000Y-31480000D03*
X132250000Y-16240000D03*
X119550000Y-31480000D03*
X134790000Y-16240000D03*
X117010000Y-31480000D03*
X137330000Y-16240000D03*
X114470000Y-31480000D03*
X139870000Y-16240000D03*
X111930000Y-31480000D03*
X142410000Y-16240000D03*
D12*
X109390000Y-31480000D03*
D17*
X142210000Y-23770000D03*
X108520000Y-36020000D03*
X105690000Y-23940000D03*
X136540000Y-36680000D03*
X130690000Y-39810000D03*
X123890000Y-37040000D03*
X129950000Y-36590000D03*
X130480000Y-22730000D03*
X144960000Y-32890000D03*
X115519000Y-17474300D03*
X124878800Y-21091200D03*
X125134990Y-22190700D03*
D18*
X130934500Y-37595500D02*
X129000000Y-39530000D01*
X132295000Y-29151000D02*
X130934500Y-30511500D01*
X129000000Y-39530000D02*
X127600000Y-40930000D01*
X130934500Y-30511500D02*
X130934500Y-37595500D01*
X119950000Y-40900000D02*
X119980000Y-40930000D01*
X119950000Y-37540000D02*
X119950000Y-40900000D01*
X127570000Y-36114700D02*
X127570000Y-37540000D01*
X128322000Y-35362700D02*
X127570000Y-36114700D01*
X128322000Y-30258000D02*
X128322000Y-35362700D01*
X127215000Y-29151000D02*
X128322000Y-30258000D01*
X132295000Y-13911000D02*
X130990000Y-15216000D01*
X128390000Y-26125000D02*
X128390000Y-26180000D01*
X136155100Y-28500200D02*
X136155100Y-31949800D01*
X136155100Y-31949800D02*
X141040000Y-36834700D01*
X137581600Y-27073700D02*
X136155100Y-28500200D01*
X137581600Y-26134900D02*
X137581600Y-27073700D01*
X141040000Y-37760000D02*
X141040000Y-36834700D01*
X129478350Y-25091650D02*
X128390000Y-26180000D01*
X136538350Y-25091650D02*
X129478350Y-25091650D01*
X136538350Y-25091650D02*
X137581600Y-26134900D01*
X128390000Y-26180000D02*
X127010000Y-24800000D01*
X127010000Y-20980000D02*
X130990000Y-17000000D01*
X127010000Y-24800000D02*
X127010000Y-20980000D01*
X130990000Y-15216000D02*
X130990000Y-17000000D01*
X139140000Y-26620000D02*
X139140000Y-27745300D01*
X139140000Y-27745300D02*
X138735000Y-28150300D01*
X138735000Y-28150300D02*
X138735000Y-33752100D01*
X138735000Y-33752100D02*
X142310000Y-37327100D01*
X142310000Y-37327100D02*
X142310000Y-39030000D01*
X136420000Y-26590000D02*
X136430000Y-26590000D01*
X134040000Y-38100000D02*
X134040000Y-36974700D01*
X133656800Y-28553200D02*
X134530000Y-27680000D01*
X134040000Y-36974700D02*
X133656800Y-36591500D01*
X133656800Y-36591500D02*
X133656800Y-28553200D01*
X134530000Y-27680000D02*
X135330000Y-27680000D01*
X135330000Y-27680000D02*
X136420000Y-26590000D01*
X141479100Y-41425700D02*
X135751000Y-41425700D01*
X143239000Y-39665800D02*
X141479100Y-41425700D01*
X141140000Y-34340800D02*
X143239000Y-36439800D01*
X141140000Y-28140000D02*
X141140000Y-34340800D01*
X137375000Y-13911000D02*
X137381000Y-13911000D01*
X137381000Y-13911000D02*
X138610000Y-15140000D01*
X138610000Y-15140000D02*
X138610000Y-16642500D01*
X135751000Y-41425700D02*
X134965300Y-40640000D01*
X143239000Y-36439800D02*
X143239000Y-39665800D01*
X138610000Y-16642500D02*
X140500000Y-18532500D01*
X140500000Y-18532500D02*
X140500000Y-27500000D01*
X134965300Y-40640000D02*
X134040000Y-40640000D01*
X140500000Y-27500000D02*
X141140000Y-28140000D01*
X142210000Y-23770000D02*
X141970000Y-24010000D01*
X141970000Y-26480000D02*
X141860000Y-26590000D01*
X141970000Y-24010000D02*
X141970000Y-26480000D01*
X105690000Y-27950000D02*
X105690000Y-23940000D01*
X108520000Y-36020000D02*
X105620000Y-33120000D01*
X105620000Y-28020000D02*
X105690000Y-27950000D01*
X105620000Y-33120000D02*
X105620000Y-28020000D01*
X142410000Y-33120000D02*
X142410000Y-31480000D01*
X142880000Y-33590000D02*
X142410000Y-33120000D01*
X144960000Y-32890000D02*
X143890000Y-33590000D01*
X143890000Y-33590000D02*
X142880000Y-33590000D01*
X99275000Y-13905000D02*
X99275000Y-13911000D01*
X137433900Y-12333000D02*
X100847000Y-12333000D01*
X142410000Y-16230000D02*
X141270000Y-15090000D01*
X142410000Y-16240000D02*
X142410000Y-16230000D01*
X138645000Y-13544100D02*
X137433900Y-12333000D01*
X141270000Y-15090000D02*
X139270000Y-15090000D01*
X100847000Y-12333000D02*
X99275000Y-13905000D01*
X139270000Y-15090000D02*
X138645000Y-14465000D01*
X138645000Y-14465000D02*
X138645000Y-13544100D01*
X105480300Y-12785700D02*
X104355000Y-13911000D01*
X135312700Y-12785700D02*
X105480300Y-12785700D01*
X136105000Y-13578000D02*
X135312700Y-12785700D01*
X137330000Y-16240000D02*
X136105000Y-15015000D01*
X136105000Y-15015000D02*
X136105000Y-13578000D01*
X108780000Y-30310000D02*
X110760000Y-30310000D01*
X108160000Y-29690000D02*
X108780000Y-30310000D01*
X110760000Y-30310000D02*
X111930000Y-31480000D01*
X109435000Y-13911000D02*
X110630000Y-15106000D01*
X110630000Y-15106000D02*
X110630000Y-17300000D01*
X110630000Y-17300000D02*
X109610000Y-18320000D01*
X109610000Y-26460000D02*
X108160000Y-27910000D01*
X109610000Y-18320000D02*
X109610000Y-26460000D01*
X108160000Y-27910000D02*
X108160000Y-29690000D01*
X113210000Y-17180000D02*
X113210000Y-15150000D01*
X113310000Y-30320000D02*
X111470000Y-30320000D01*
X114470000Y-31480000D02*
X113310000Y-30320000D01*
X111470000Y-30320000D02*
X110834000Y-29684000D01*
X111975000Y-13915000D02*
X111975000Y-13911000D01*
X110834000Y-29684000D02*
X110834000Y-27856000D01*
X113210000Y-15150000D02*
X111975000Y-13915000D01*
X110834000Y-27856000D02*
X111060000Y-27630000D01*
X111060000Y-19330000D02*
X113210000Y-17180000D01*
X111060000Y-27630000D02*
X111060000Y-19330000D01*
X114515000Y-13935000D02*
X114515000Y-13911000D01*
X115597300Y-15017300D02*
X114515000Y-13935000D01*
X115519000Y-17474300D02*
X115597300Y-17396000D01*
X115597300Y-17396000D02*
X115597300Y-15017300D01*
X125080000Y-32850000D02*
X118380000Y-32850000D01*
X125860000Y-32070000D02*
X125080000Y-32850000D01*
X125860000Y-31020000D02*
X125860000Y-32070000D01*
X125133000Y-30293000D02*
X125860000Y-31020000D01*
X124409988Y-21560012D02*
X124409988Y-26550012D01*
X123400000Y-27560000D02*
X123400000Y-29580000D01*
X118380000Y-32850000D02*
X117010000Y-31480000D01*
X124878800Y-21091200D02*
X124409988Y-21560012D01*
X124113000Y-30293000D02*
X125133000Y-30293000D01*
X124409988Y-26550012D02*
X123400000Y-27560000D01*
X123400000Y-29580000D02*
X124113000Y-30293000D01*
X116440000Y-30320000D02*
X118390000Y-30320000D01*
X115810000Y-29690000D02*
X116440000Y-30320000D01*
X118270000Y-17240000D02*
X117630000Y-17880000D01*
X118270000Y-15126000D02*
X118270000Y-17240000D01*
X117055000Y-13911000D02*
X118270000Y-15126000D01*
X117630000Y-17880000D02*
X117630000Y-26330000D01*
X118390000Y-30320000D02*
X119550000Y-31480000D01*
X117630000Y-26330000D02*
X115810000Y-28150000D01*
X115810000Y-28150000D02*
X115810000Y-29690000D01*
X120964700Y-30354700D02*
X122090000Y-31480000D01*
X119114700Y-30354700D02*
X120964700Y-30354700D01*
X118290000Y-29530000D02*
X119114700Y-30354700D01*
X118290000Y-28060000D02*
X118290000Y-29530000D01*
X119601000Y-13911000D02*
X120800000Y-15110000D01*
X119595000Y-13911000D02*
X119601000Y-13911000D01*
X120800000Y-15110000D02*
X120800000Y-17210000D01*
X120800000Y-17210000D02*
X118820000Y-19190000D01*
X118820000Y-19190000D02*
X118820000Y-27530000D01*
X118820000Y-27530000D02*
X118290000Y-28060000D01*
X125134990Y-27559640D02*
X125134990Y-22190700D01*
X124675000Y-28019630D02*
X125134990Y-27559640D01*
X124675000Y-29151000D02*
X124675000Y-28019630D01*
X123350000Y-15126000D02*
X122135000Y-13911000D01*
X123504700Y-30354700D02*
X121614700Y-30354700D01*
X124630000Y-31480000D02*
X123504700Y-30354700D01*
X121614700Y-30354700D02*
X120900000Y-29640000D01*
X120900000Y-29640000D02*
X120900000Y-28480000D01*
X120900000Y-28480000D02*
X123350000Y-26030000D01*
X123350000Y-26030000D02*
X123350000Y-15126000D01*
X123830001Y-17039999D02*
X123830001Y-26330699D01*
X122135000Y-28025700D02*
X122135000Y-29151000D01*
X124630000Y-16240000D02*
X123830001Y-17039999D01*
X123830001Y-26330699D02*
X122135000Y-28025700D01*
X125860000Y-30170000D02*
X127170000Y-31480000D01*
X125860000Y-15096000D02*
X125860000Y-30170000D01*
X124675000Y-13911000D02*
X125860000Y-15096000D01*
X119595000Y-27835000D02*
X119595000Y-29151000D01*
X122090000Y-17350000D02*
X121750000Y-17690000D01*
X121750000Y-17690000D02*
X121050000Y-17690000D01*
X122090000Y-16240000D02*
X122090000Y-17350000D01*
X119390000Y-27630000D02*
X119595000Y-27835000D01*
X121050000Y-17690000D02*
X119390000Y-19350000D01*
X119390000Y-19350000D02*
X119390000Y-27630000D01*
X128430000Y-15126000D02*
X128430000Y-16930000D01*
X127215000Y-13911000D02*
X128430000Y-15126000D01*
X128480000Y-28420000D02*
X128480000Y-29779590D01*
X128480000Y-29779590D02*
X129710000Y-31009590D01*
X128430000Y-16930000D02*
X126370000Y-18990000D01*
X129710000Y-31009590D02*
X129710000Y-31480000D01*
X126370000Y-18990000D02*
X126370000Y-26310000D01*
X126370000Y-26310000D02*
X128480000Y-28420000D01*
X117055000Y-27775000D02*
X117055000Y-29151000D01*
X118230000Y-26600000D02*
X117055000Y-27775000D01*
X118230000Y-18685300D02*
X118230000Y-26600000D01*
X119550000Y-16240000D02*
X119550000Y-17365300D01*
X119550000Y-17365300D02*
X118230000Y-18685300D01*
X129710000Y-16240000D02*
X129710000Y-15114700D01*
X129710000Y-15114700D02*
X129755000Y-15069700D01*
X129755000Y-15069700D02*
X129755000Y-13911000D01*
X117010000Y-16240000D02*
X117010000Y-25260000D01*
X114515000Y-27755000D02*
X114515000Y-29151000D01*
X117010000Y-25260000D02*
X114515000Y-27755000D01*
X111975000Y-27925000D02*
X111975000Y-29151000D01*
X114470000Y-17410000D02*
X114160000Y-17720000D01*
X114470000Y-16240000D02*
X114470000Y-17410000D01*
X114160000Y-17720000D02*
X113420000Y-17720000D01*
X111720000Y-27670000D02*
X111975000Y-27925000D01*
X113420000Y-17720000D02*
X111720000Y-19420000D01*
X111720000Y-19420000D02*
X111720000Y-27670000D01*
X132250000Y-16240000D02*
X132510000Y-16240000D01*
X134835000Y-13915000D02*
X134835000Y-13911000D01*
X132510000Y-16240000D02*
X134835000Y-13915000D01*
X136430000Y-17910000D02*
X136430000Y-18970000D01*
X136030000Y-17510000D02*
X136430000Y-17910000D01*
X132540000Y-17510000D02*
X136030000Y-17510000D01*
X132250000Y-16240000D02*
X132250000Y-17220000D01*
X132250000Y-17220000D02*
X132540000Y-17510000D01*
X109435000Y-27805000D02*
X109435000Y-29151000D01*
X110420000Y-26820000D02*
X109435000Y-27805000D01*
X110420000Y-18875300D02*
X110420000Y-26820000D01*
X111930000Y-16240000D02*
X111930000Y-17365300D01*
X111930000Y-17365300D02*
X110420000Y-18875300D01*
X145890000Y-16681300D02*
X147535000Y-15036300D01*
X146120400Y-28079600D02*
X146120400Y-20609600D01*
X109390000Y-33140300D02*
X118629690Y-42379990D01*
X109390000Y-31480000D02*
X109390000Y-33140300D01*
X141161710Y-42379990D02*
X146250000Y-37291700D01*
X145890000Y-20379200D02*
X145890000Y-16681300D01*
X118629690Y-42379990D02*
X141161710Y-42379990D01*
X146120400Y-20609600D02*
X145890000Y-20379200D01*
X146250000Y-37291700D02*
X146250000Y-28209200D01*
X147535000Y-15036300D02*
X147535000Y-13911000D01*
X146250000Y-28209200D02*
X146120400Y-28079600D01*
D19*
X105780363Y-30065759D02*
X105980241Y-30265637D01*
X106215273Y-30422680D01*
X106476426Y-30530853D01*
X106753665Y-30586000D01*
X107036335Y-30586000D01*
X107313574Y-30530853D01*
X107574727Y-30422680D01*
X107720486Y-30325287D01*
X107962980Y-30567782D01*
X107951928Y-30680000D01*
X107951928Y-32280000D01*
X107964188Y-32404482D01*
X108000498Y-32524180D01*
X108059463Y-32634494D01*
X108138815Y-32731185D01*
X108235506Y-32810537D01*
X108345820Y-32869502D01*
X108465518Y-32905812D01*
X108590000Y-32918072D01*
X108630001Y-32918072D01*
X108630001Y-33102968D01*
X108626324Y-33140300D01*
X108640998Y-33289285D01*
X108684454Y-33432546D01*
X108755026Y-33564576D01*
X108783280Y-33599003D01*
X108850000Y-33680301D01*
X108878998Y-33704099D01*
X117244898Y-42070000D01*
X104794091Y-42070000D01*
X98380000Y-35655909D01*
X98380000Y-30278840D01*
X98595273Y-30422680D01*
X98856426Y-30530853D01*
X99133665Y-30586000D01*
X99416335Y-30586000D01*
X99693574Y-30530853D01*
X99954727Y-30422680D01*
X100189759Y-30265637D01*
X100389637Y-30065759D01*
X100545000Y-29833241D01*
X100700363Y-30065759D01*
X100900241Y-30265637D01*
X101135273Y-30422680D01*
X101396426Y-30530853D01*
X101673665Y-30586000D01*
X101956335Y-30586000D01*
X102233574Y-30530853D01*
X102494727Y-30422680D01*
X102729759Y-30265637D01*
X102929637Y-30065759D01*
X103085000Y-29833241D01*
X103240363Y-30065759D01*
X103440241Y-30265637D01*
X103675273Y-30422680D01*
X103936426Y-30530853D01*
X104213665Y-30586000D01*
X104496335Y-30586000D01*
X104773574Y-30530853D01*
X105034727Y-30422680D01*
X105269759Y-30265637D01*
X105469637Y-30065759D01*
X105625000Y-29833241D01*
X105780363Y-30065759D01*
G04 #@! TA.AperFunction,Conductor*
D20*
G36*
X105780363Y-30065759D02*
G01*
X105980241Y-30265637D01*
X106215273Y-30422680D01*
X106476426Y-30530853D01*
X106753665Y-30586000D01*
X107036335Y-30586000D01*
X107313574Y-30530853D01*
X107574727Y-30422680D01*
X107720486Y-30325287D01*
X107962980Y-30567782D01*
X107951928Y-30680000D01*
X107951928Y-32280000D01*
X107964188Y-32404482D01*
X108000498Y-32524180D01*
X108059463Y-32634494D01*
X108138815Y-32731185D01*
X108235506Y-32810537D01*
X108345820Y-32869502D01*
X108465518Y-32905812D01*
X108590000Y-32918072D01*
X108630001Y-32918072D01*
X108630001Y-33102968D01*
X108626324Y-33140300D01*
X108640998Y-33289285D01*
X108684454Y-33432546D01*
X108755026Y-33564576D01*
X108783280Y-33599003D01*
X108850000Y-33680301D01*
X108878998Y-33704099D01*
X117244898Y-42070000D01*
X104794091Y-42070000D01*
X98380000Y-35655909D01*
X98380000Y-30278840D01*
X98595273Y-30422680D01*
X98856426Y-30530853D01*
X99133665Y-30586000D01*
X99416335Y-30586000D01*
X99693574Y-30530853D01*
X99954727Y-30422680D01*
X100189759Y-30265637D01*
X100389637Y-30065759D01*
X100545000Y-29833241D01*
X100700363Y-30065759D01*
X100900241Y-30265637D01*
X101135273Y-30422680D01*
X101396426Y-30530853D01*
X101673665Y-30586000D01*
X101956335Y-30586000D01*
X102233574Y-30530853D01*
X102494727Y-30422680D01*
X102729759Y-30265637D01*
X102929637Y-30065759D01*
X103085000Y-29833241D01*
X103240363Y-30065759D01*
X103440241Y-30265637D01*
X103675273Y-30422680D01*
X103936426Y-30530853D01*
X104213665Y-30586000D01*
X104496335Y-30586000D01*
X104773574Y-30530853D01*
X105034727Y-30422680D01*
X105269759Y-30265637D01*
X105469637Y-30065759D01*
X105625000Y-29833241D01*
X105780363Y-30065759D01*
G37*
G04 #@! TD.AperFunction*
D19*
X132896800Y-36554178D02*
X132893124Y-36591500D01*
X132896800Y-36628822D01*
X132896800Y-36628832D01*
X132907797Y-36740485D01*
X132939955Y-36846498D01*
X132951254Y-36883746D01*
X133021826Y-37015776D01*
X133054426Y-37055499D01*
X133094921Y-37104842D01*
X133008168Y-37210551D01*
X132893489Y-37425099D01*
X132822870Y-37657898D01*
X132805000Y-37839335D01*
X132805000Y-38135000D01*
X132648363Y-38135000D01*
X132409764Y-38182460D01*
X132185008Y-38275557D01*
X131982733Y-38410713D01*
X131810713Y-38582733D01*
X131675557Y-38785008D01*
X131582460Y-39009764D01*
X131535000Y-39248363D01*
X131535000Y-39491637D01*
X131582460Y-39730236D01*
X131675557Y-39954992D01*
X131810713Y-40157267D01*
X131982733Y-40329287D01*
X132185008Y-40464443D01*
X132409764Y-40557540D01*
X132648363Y-40605000D01*
X132805000Y-40605000D01*
X132805000Y-40761637D01*
X132852460Y-41000236D01*
X132945557Y-41224992D01*
X133080713Y-41427267D01*
X133252733Y-41599287D01*
X133283717Y-41619990D01*
X129338072Y-41619990D01*
X129338072Y-40266730D01*
X129563799Y-40041003D01*
X129563803Y-40040998D01*
X131445503Y-38159299D01*
X131474501Y-38135501D01*
X131520049Y-38080001D01*
X131569474Y-38019777D01*
X131640046Y-37887747D01*
X131667472Y-37797333D01*
X131683503Y-37744486D01*
X131694500Y-37632833D01*
X131694500Y-37632824D01*
X131698176Y-37595501D01*
X131694500Y-37558178D01*
X131694500Y-32803136D01*
X131831426Y-32859853D01*
X132108665Y-32915000D01*
X132391335Y-32915000D01*
X132668574Y-32859853D01*
X132896800Y-32765319D01*
X132896800Y-36554178D01*
G04 #@! TA.AperFunction,Conductor*
D20*
G36*
X132896800Y-36554178D02*
G01*
X132893124Y-36591500D01*
X132896800Y-36628822D01*
X132896800Y-36628832D01*
X132907797Y-36740485D01*
X132939955Y-36846498D01*
X132951254Y-36883746D01*
X133021826Y-37015776D01*
X133054426Y-37055499D01*
X133094921Y-37104842D01*
X133008168Y-37210551D01*
X132893489Y-37425099D01*
X132822870Y-37657898D01*
X132805000Y-37839335D01*
X132805000Y-38135000D01*
X132648363Y-38135000D01*
X132409764Y-38182460D01*
X132185008Y-38275557D01*
X131982733Y-38410713D01*
X131810713Y-38582733D01*
X131675557Y-38785008D01*
X131582460Y-39009764D01*
X131535000Y-39248363D01*
X131535000Y-39491637D01*
X131582460Y-39730236D01*
X131675557Y-39954992D01*
X131810713Y-40157267D01*
X131982733Y-40329287D01*
X132185008Y-40464443D01*
X132409764Y-40557540D01*
X132648363Y-40605000D01*
X132805000Y-40605000D01*
X132805000Y-40761637D01*
X132852460Y-41000236D01*
X132945557Y-41224992D01*
X133080713Y-41427267D01*
X133252733Y-41599287D01*
X133283717Y-41619990D01*
X129338072Y-41619990D01*
X129338072Y-40266730D01*
X129563799Y-40041003D01*
X129563803Y-40040998D01*
X131445503Y-38159299D01*
X131474501Y-38135501D01*
X131520049Y-38080001D01*
X131569474Y-38019777D01*
X131640046Y-37887747D01*
X131667472Y-37797333D01*
X131683503Y-37744486D01*
X131694500Y-37632833D01*
X131694500Y-37632824D01*
X131698176Y-37595501D01*
X131694500Y-37558178D01*
X131694500Y-32803136D01*
X131831426Y-32859853D01*
X132108665Y-32915000D01*
X132391335Y-32915000D01*
X132668574Y-32859853D01*
X132896800Y-32765319D01*
X132896800Y-36554178D01*
G37*
G04 #@! TD.AperFunction*
D19*
X115895363Y-32394759D02*
X116095241Y-32594637D01*
X116330273Y-32751680D01*
X116591426Y-32859853D01*
X116868665Y-32915000D01*
X117151335Y-32915000D01*
X117333886Y-32878688D01*
X117816201Y-33361003D01*
X117839999Y-33390001D01*
X117925115Y-33459854D01*
X117955724Y-33484974D01*
X118087753Y-33555546D01*
X118231014Y-33599003D01*
X118380000Y-33613677D01*
X118417333Y-33610000D01*
X125042678Y-33610000D01*
X125080000Y-33613676D01*
X125117322Y-33610000D01*
X125117333Y-33610000D01*
X125228986Y-33599003D01*
X125372247Y-33555546D01*
X125504276Y-33484974D01*
X125620001Y-33390001D01*
X125643803Y-33360998D01*
X126348111Y-32656691D01*
X126490273Y-32751680D01*
X126751426Y-32859853D01*
X127028665Y-32915000D01*
X127311335Y-32915000D01*
X127562001Y-32865139D01*
X127562001Y-35047897D01*
X127059002Y-35550897D01*
X127029999Y-35574699D01*
X126974871Y-35641874D01*
X126935026Y-35690424D01*
X126873876Y-35804826D01*
X126864454Y-35822454D01*
X126820997Y-35965715D01*
X126820321Y-35972577D01*
X126748169Y-36002463D01*
X126464002Y-36192337D01*
X126222337Y-36434002D01*
X126032463Y-36718169D01*
X125901675Y-37033919D01*
X125835000Y-37369117D01*
X125835000Y-37710883D01*
X125901675Y-38046081D01*
X126032463Y-38361831D01*
X126222337Y-38645998D01*
X126464002Y-38887663D01*
X126748169Y-39077537D01*
X127024333Y-39191928D01*
X126500000Y-39191928D01*
X126375518Y-39204188D01*
X126255820Y-39240498D01*
X126145506Y-39299463D01*
X126048815Y-39378815D01*
X125969463Y-39475506D01*
X125910498Y-39585820D01*
X125874188Y-39705518D01*
X125861928Y-39830000D01*
X125861928Y-41619990D01*
X121572147Y-41619990D01*
X121648325Y-41436081D01*
X121715000Y-41100883D01*
X121715000Y-40759117D01*
X121648325Y-40423919D01*
X121517537Y-40108169D01*
X121327663Y-39824002D01*
X121085998Y-39582337D01*
X120801831Y-39392463D01*
X120710000Y-39354425D01*
X120710000Y-39278072D01*
X121050000Y-39278072D01*
X121174482Y-39265812D01*
X121294180Y-39229502D01*
X121404494Y-39170537D01*
X121501185Y-39091185D01*
X121580537Y-38994494D01*
X121639502Y-38884180D01*
X121675812Y-38764482D01*
X121688072Y-38640000D01*
X121688072Y-36440000D01*
X121675812Y-36315518D01*
X121639502Y-36195820D01*
X121580537Y-36085506D01*
X121501185Y-35988815D01*
X121404494Y-35909463D01*
X121294180Y-35850498D01*
X121174482Y-35814188D01*
X121050000Y-35801928D01*
X118850000Y-35801928D01*
X118725518Y-35814188D01*
X118605820Y-35850498D01*
X118495506Y-35909463D01*
X118398815Y-35988815D01*
X118319463Y-36085506D01*
X118260498Y-36195820D01*
X118224188Y-36315518D01*
X118211928Y-36440000D01*
X118211928Y-38640000D01*
X118224188Y-38764482D01*
X118260498Y-38884180D01*
X118319463Y-38994494D01*
X118398815Y-39091185D01*
X118495506Y-39170537D01*
X118605820Y-39229502D01*
X118725518Y-39265812D01*
X118850000Y-39278072D01*
X119190001Y-39278072D01*
X119190001Y-39379278D01*
X119158169Y-39392463D01*
X118874002Y-39582337D01*
X118632337Y-39824002D01*
X118442463Y-40108169D01*
X118311675Y-40423919D01*
X118245000Y-40759117D01*
X118245000Y-40920498D01*
X110237859Y-32913358D01*
X110314482Y-32905812D01*
X110434180Y-32869502D01*
X110544494Y-32810537D01*
X110641185Y-32731185D01*
X110720537Y-32634494D01*
X110779502Y-32524180D01*
X110815812Y-32404482D01*
X110816643Y-32396039D01*
X111015241Y-32594637D01*
X111250273Y-32751680D01*
X111511426Y-32859853D01*
X111788665Y-32915000D01*
X112071335Y-32915000D01*
X112348574Y-32859853D01*
X112609727Y-32751680D01*
X112844759Y-32594637D01*
X113044637Y-32394759D01*
X113200000Y-32162241D01*
X113355363Y-32394759D01*
X113555241Y-32594637D01*
X113790273Y-32751680D01*
X114051426Y-32859853D01*
X114328665Y-32915000D01*
X114611335Y-32915000D01*
X114888574Y-32859853D01*
X115149727Y-32751680D01*
X115384759Y-32594637D01*
X115584637Y-32394759D01*
X115740000Y-32162241D01*
X115895363Y-32394759D01*
G04 #@! TA.AperFunction,Conductor*
D20*
G36*
X115895363Y-32394759D02*
G01*
X116095241Y-32594637D01*
X116330273Y-32751680D01*
X116591426Y-32859853D01*
X116868665Y-32915000D01*
X117151335Y-32915000D01*
X117333886Y-32878688D01*
X117816201Y-33361003D01*
X117839999Y-33390001D01*
X117925115Y-33459854D01*
X117955724Y-33484974D01*
X118087753Y-33555546D01*
X118231014Y-33599003D01*
X118380000Y-33613677D01*
X118417333Y-33610000D01*
X125042678Y-33610000D01*
X125080000Y-33613676D01*
X125117322Y-33610000D01*
X125117333Y-33610000D01*
X125228986Y-33599003D01*
X125372247Y-33555546D01*
X125504276Y-33484974D01*
X125620001Y-33390001D01*
X125643803Y-33360998D01*
X126348111Y-32656691D01*
X126490273Y-32751680D01*
X126751426Y-32859853D01*
X127028665Y-32915000D01*
X127311335Y-32915000D01*
X127562001Y-32865139D01*
X127562001Y-35047897D01*
X127059002Y-35550897D01*
X127029999Y-35574699D01*
X126974871Y-35641874D01*
X126935026Y-35690424D01*
X126873876Y-35804826D01*
X126864454Y-35822454D01*
X126820997Y-35965715D01*
X126820321Y-35972577D01*
X126748169Y-36002463D01*
X126464002Y-36192337D01*
X126222337Y-36434002D01*
X126032463Y-36718169D01*
X125901675Y-37033919D01*
X125835000Y-37369117D01*
X125835000Y-37710883D01*
X125901675Y-38046081D01*
X126032463Y-38361831D01*
X126222337Y-38645998D01*
X126464002Y-38887663D01*
X126748169Y-39077537D01*
X127024333Y-39191928D01*
X126500000Y-39191928D01*
X126375518Y-39204188D01*
X126255820Y-39240498D01*
X126145506Y-39299463D01*
X126048815Y-39378815D01*
X125969463Y-39475506D01*
X125910498Y-39585820D01*
X125874188Y-39705518D01*
X125861928Y-39830000D01*
X125861928Y-41619990D01*
X121572147Y-41619990D01*
X121648325Y-41436081D01*
X121715000Y-41100883D01*
X121715000Y-40759117D01*
X121648325Y-40423919D01*
X121517537Y-40108169D01*
X121327663Y-39824002D01*
X121085998Y-39582337D01*
X120801831Y-39392463D01*
X120710000Y-39354425D01*
X120710000Y-39278072D01*
X121050000Y-39278072D01*
X121174482Y-39265812D01*
X121294180Y-39229502D01*
X121404494Y-39170537D01*
X121501185Y-39091185D01*
X121580537Y-38994494D01*
X121639502Y-38884180D01*
X121675812Y-38764482D01*
X121688072Y-38640000D01*
X121688072Y-36440000D01*
X121675812Y-36315518D01*
X121639502Y-36195820D01*
X121580537Y-36085506D01*
X121501185Y-35988815D01*
X121404494Y-35909463D01*
X121294180Y-35850498D01*
X121174482Y-35814188D01*
X121050000Y-35801928D01*
X118850000Y-35801928D01*
X118725518Y-35814188D01*
X118605820Y-35850498D01*
X118495506Y-35909463D01*
X118398815Y-35988815D01*
X118319463Y-36085506D01*
X118260498Y-36195820D01*
X118224188Y-36315518D01*
X118211928Y-36440000D01*
X118211928Y-38640000D01*
X118224188Y-38764482D01*
X118260498Y-38884180D01*
X118319463Y-38994494D01*
X118398815Y-39091185D01*
X118495506Y-39170537D01*
X118605820Y-39229502D01*
X118725518Y-39265812D01*
X118850000Y-39278072D01*
X119190001Y-39278072D01*
X119190001Y-39379278D01*
X119158169Y-39392463D01*
X118874002Y-39582337D01*
X118632337Y-39824002D01*
X118442463Y-40108169D01*
X118311675Y-40423919D01*
X118245000Y-40759117D01*
X118245000Y-40920498D01*
X110237859Y-32913358D01*
X110314482Y-32905812D01*
X110434180Y-32869502D01*
X110544494Y-32810537D01*
X110641185Y-32731185D01*
X110720537Y-32634494D01*
X110779502Y-32524180D01*
X110815812Y-32404482D01*
X110816643Y-32396039D01*
X111015241Y-32594637D01*
X111250273Y-32751680D01*
X111511426Y-32859853D01*
X111788665Y-32915000D01*
X112071335Y-32915000D01*
X112348574Y-32859853D01*
X112609727Y-32751680D01*
X112844759Y-32594637D01*
X113044637Y-32394759D01*
X113200000Y-32162241D01*
X113355363Y-32394759D01*
X113555241Y-32594637D01*
X113790273Y-32751680D01*
X114051426Y-32859853D01*
X114328665Y-32915000D01*
X114611335Y-32915000D01*
X114888574Y-32859853D01*
X115149727Y-32751680D01*
X115384759Y-32594637D01*
X115584637Y-32394759D01*
X115740000Y-32162241D01*
X115895363Y-32394759D01*
G37*
G04 #@! TD.AperFunction*
D19*
X140091972Y-36961474D02*
X140080713Y-36972733D01*
X139945557Y-37175008D01*
X139852460Y-37399764D01*
X139805000Y-37638363D01*
X139805000Y-37881637D01*
X139852460Y-38120236D01*
X139945557Y-38344992D01*
X140080713Y-38547267D01*
X140252733Y-38719287D01*
X140455008Y-38854443D01*
X140639580Y-38930895D01*
X140565099Y-38953489D01*
X140350551Y-39068167D01*
X140162498Y-39222498D01*
X140008167Y-39410552D01*
X139893489Y-39625100D01*
X139822870Y-39857899D01*
X139805000Y-40039336D01*
X139805000Y-40560665D01*
X139815345Y-40665700D01*
X136065802Y-40665700D01*
X135529103Y-40129002D01*
X135505301Y-40099999D01*
X135389576Y-40005026D01*
X135257547Y-39934454D01*
X135114286Y-39890997D01*
X135018554Y-39881568D01*
X134999287Y-39852733D01*
X134827267Y-39680713D01*
X134624992Y-39545557D01*
X134440419Y-39469105D01*
X134514900Y-39446511D01*
X134729448Y-39331833D01*
X134917502Y-39177502D01*
X135071833Y-38989449D01*
X135186511Y-38774901D01*
X135257130Y-38542102D01*
X135275000Y-38360665D01*
X135275000Y-37839336D01*
X135257130Y-37657899D01*
X135186511Y-37425100D01*
X135071833Y-37210551D01*
X134917502Y-37022498D01*
X134798789Y-36925073D01*
X134789003Y-36825714D01*
X134745546Y-36682453D01*
X134674974Y-36550424D01*
X134580001Y-36434699D01*
X134550997Y-36410896D01*
X134416800Y-36276699D01*
X134416800Y-32868879D01*
X134648665Y-32915000D01*
X134931335Y-32915000D01*
X135208574Y-32859853D01*
X135469727Y-32751680D01*
X135704759Y-32594637D01*
X135714947Y-32584449D01*
X140091972Y-36961474D01*
G04 #@! TA.AperFunction,Conductor*
D20*
G36*
X140091972Y-36961474D02*
G01*
X140080713Y-36972733D01*
X139945557Y-37175008D01*
X139852460Y-37399764D01*
X139805000Y-37638363D01*
X139805000Y-37881637D01*
X139852460Y-38120236D01*
X139945557Y-38344992D01*
X140080713Y-38547267D01*
X140252733Y-38719287D01*
X140455008Y-38854443D01*
X140639580Y-38930895D01*
X140565099Y-38953489D01*
X140350551Y-39068167D01*
X140162498Y-39222498D01*
X140008167Y-39410552D01*
X139893489Y-39625100D01*
X139822870Y-39857899D01*
X139805000Y-40039336D01*
X139805000Y-40560665D01*
X139815345Y-40665700D01*
X136065802Y-40665700D01*
X135529103Y-40129002D01*
X135505301Y-40099999D01*
X135389576Y-40005026D01*
X135257547Y-39934454D01*
X135114286Y-39890997D01*
X135018554Y-39881568D01*
X134999287Y-39852733D01*
X134827267Y-39680713D01*
X134624992Y-39545557D01*
X134440419Y-39469105D01*
X134514900Y-39446511D01*
X134729448Y-39331833D01*
X134917502Y-39177502D01*
X135071833Y-38989449D01*
X135186511Y-38774901D01*
X135257130Y-38542102D01*
X135275000Y-38360665D01*
X135275000Y-37839336D01*
X135257130Y-37657899D01*
X135186511Y-37425100D01*
X135071833Y-37210551D01*
X134917502Y-37022498D01*
X134798789Y-36925073D01*
X134789003Y-36825714D01*
X134745546Y-36682453D01*
X134674974Y-36550424D01*
X134580001Y-36434699D01*
X134550997Y-36410896D01*
X134416800Y-36276699D01*
X134416800Y-32868879D01*
X134648665Y-32915000D01*
X134931335Y-32915000D01*
X135208574Y-32859853D01*
X135469727Y-32751680D01*
X135704759Y-32594637D01*
X135714947Y-32584449D01*
X140091972Y-36961474D01*
G37*
G04 #@! TD.AperFunction*
D19*
X143880363Y-30065759D02*
X144080241Y-30265637D01*
X144315273Y-30422680D01*
X144576426Y-30530853D01*
X144853665Y-30586000D01*
X145136335Y-30586000D01*
X145413574Y-30530853D01*
X145490001Y-30499196D01*
X145490000Y-36976898D01*
X143999000Y-38467898D01*
X143999000Y-36477122D01*
X144002676Y-36439799D01*
X143999000Y-36402476D01*
X143999000Y-36402467D01*
X143988003Y-36290814D01*
X143944546Y-36147553D01*
X143873974Y-36015524D01*
X143779001Y-35899799D01*
X143750004Y-35876002D01*
X141900000Y-34025999D01*
X141900000Y-32818526D01*
X141926913Y-32831246D01*
X142060961Y-32871904D01*
X142283000Y-32749915D01*
X142283000Y-31607000D01*
X142537000Y-31607000D01*
X142537000Y-32749915D01*
X142759039Y-32871904D01*
X142893087Y-32831246D01*
X143147420Y-32711037D01*
X143373414Y-32543519D01*
X143562385Y-32335131D01*
X143707070Y-32093881D01*
X143801909Y-31829040D01*
X143680624Y-31607000D01*
X142537000Y-31607000D01*
X142283000Y-31607000D01*
X142263000Y-31607000D01*
X142263000Y-31353000D01*
X142283000Y-31353000D01*
X142283000Y-31333000D01*
X142537000Y-31333000D01*
X142537000Y-31353000D01*
X143680624Y-31353000D01*
X143801909Y-31130960D01*
X143707070Y-30866119D01*
X143562385Y-30624869D01*
X143373414Y-30416481D01*
X143264656Y-30335864D01*
X143369759Y-30265637D01*
X143569637Y-30065759D01*
X143725000Y-29833241D01*
X143880363Y-30065759D01*
G04 #@! TA.AperFunction,Conductor*
D20*
G36*
X143880363Y-30065759D02*
G01*
X144080241Y-30265637D01*
X144315273Y-30422680D01*
X144576426Y-30530853D01*
X144853665Y-30586000D01*
X145136335Y-30586000D01*
X145413574Y-30530853D01*
X145490001Y-30499196D01*
X145490000Y-36976898D01*
X143999000Y-38467898D01*
X143999000Y-36477122D01*
X144002676Y-36439799D01*
X143999000Y-36402476D01*
X143999000Y-36402467D01*
X143988003Y-36290814D01*
X143944546Y-36147553D01*
X143873974Y-36015524D01*
X143779001Y-35899799D01*
X143750004Y-35876002D01*
X141900000Y-34025999D01*
X141900000Y-32818526D01*
X141926913Y-32831246D01*
X142060961Y-32871904D01*
X142283000Y-32749915D01*
X142283000Y-31607000D01*
X142537000Y-31607000D01*
X142537000Y-32749915D01*
X142759039Y-32871904D01*
X142893087Y-32831246D01*
X143147420Y-32711037D01*
X143373414Y-32543519D01*
X143562385Y-32335131D01*
X143707070Y-32093881D01*
X143801909Y-31829040D01*
X143680624Y-31607000D01*
X142537000Y-31607000D01*
X142283000Y-31607000D01*
X142263000Y-31607000D01*
X142263000Y-31353000D01*
X142283000Y-31353000D01*
X142283000Y-31333000D01*
X142537000Y-31333000D01*
X142537000Y-31353000D01*
X143680624Y-31353000D01*
X143801909Y-31130960D01*
X143707070Y-30866119D01*
X143562385Y-30624869D01*
X143373414Y-30416481D01*
X143264656Y-30335864D01*
X143369759Y-30265637D01*
X143569637Y-30065759D01*
X143725000Y-29833241D01*
X143880363Y-30065759D01*
G37*
G04 #@! TD.AperFunction*
D19*
X129291426Y-32859853D02*
X129568665Y-32915000D01*
X129851335Y-32915000D01*
X130128574Y-32859853D01*
X130174500Y-32840830D01*
X130174501Y-37280697D01*
X129117556Y-38337642D01*
X129238325Y-38046081D01*
X129305000Y-37710883D01*
X129305000Y-37369117D01*
X129238325Y-37033919D01*
X129107537Y-36718169D01*
X128917663Y-36434002D01*
X128675998Y-36192337D01*
X128610757Y-36148745D01*
X128833002Y-35926499D01*
X128862001Y-35902701D01*
X128956974Y-35786976D01*
X129027546Y-35654947D01*
X129071003Y-35511686D01*
X129082000Y-35400033D01*
X129085677Y-35362700D01*
X129082000Y-35325367D01*
X129082000Y-32773106D01*
X129291426Y-32859853D01*
G04 #@! TA.AperFunction,Conductor*
D20*
G36*
X129291426Y-32859853D02*
G01*
X129568665Y-32915000D01*
X129851335Y-32915000D01*
X130128574Y-32859853D01*
X130174500Y-32840830D01*
X130174501Y-37280697D01*
X129117556Y-38337642D01*
X129238325Y-38046081D01*
X129305000Y-37710883D01*
X129305000Y-37369117D01*
X129238325Y-37033919D01*
X129107537Y-36718169D01*
X128917663Y-36434002D01*
X128675998Y-36192337D01*
X128610757Y-36148745D01*
X128833002Y-35926499D01*
X128862001Y-35902701D01*
X128956974Y-35786976D01*
X129027546Y-35654947D01*
X129071003Y-35511686D01*
X129082000Y-35400033D01*
X129085677Y-35362700D01*
X129082000Y-35325367D01*
X129082000Y-32773106D01*
X129291426Y-32859853D01*
G37*
G04 #@! TD.AperFunction*
D19*
X147662000Y-29024000D02*
X147682000Y-29024000D01*
X147682000Y-29278000D01*
X147662000Y-29278000D01*
X147662000Y-30420915D01*
X147884039Y-30542904D01*
X148018087Y-30502246D01*
X148272420Y-30382037D01*
X148498414Y-30214519D01*
X148590001Y-30113522D01*
X148590001Y-35655908D01*
X147010000Y-37235909D01*
X147010000Y-30482436D01*
X147051913Y-30502246D01*
X147185961Y-30542904D01*
X147408000Y-30420915D01*
X147408000Y-29278000D01*
X147388000Y-29278000D01*
X147388000Y-29024000D01*
X147408000Y-29024000D01*
X147408000Y-29004000D01*
X147662000Y-29004000D01*
X147662000Y-29024000D01*
G04 #@! TA.AperFunction,Conductor*
D20*
G36*
X147662000Y-29024000D02*
G01*
X147682000Y-29024000D01*
X147682000Y-29278000D01*
X147662000Y-29278000D01*
X147662000Y-30420915D01*
X147884039Y-30542904D01*
X148018087Y-30502246D01*
X148272420Y-30382037D01*
X148498414Y-30214519D01*
X148590001Y-30113522D01*
X148590001Y-35655908D01*
X147010000Y-37235909D01*
X147010000Y-30482436D01*
X147051913Y-30502246D01*
X147185961Y-30542904D01*
X147408000Y-30420915D01*
X147408000Y-29278000D01*
X147388000Y-29278000D01*
X147388000Y-29024000D01*
X147408000Y-29024000D01*
X147408000Y-29004000D01*
X147662000Y-29004000D01*
X147662000Y-29024000D01*
G37*
G04 #@! TD.AperFunction*
D19*
X108320363Y-14825759D02*
X108520241Y-15025637D01*
X108572366Y-15060466D01*
X108475241Y-15125363D01*
X108275363Y-15325241D01*
X108118320Y-15560273D01*
X108010147Y-15821426D01*
X107955000Y-16098665D01*
X107955000Y-16381335D01*
X108010147Y-16658574D01*
X108118320Y-16919727D01*
X108275363Y-17154759D01*
X108475241Y-17354637D01*
X108710273Y-17511680D01*
X108971426Y-17619853D01*
X109191558Y-17663641D01*
X109099002Y-17756196D01*
X109069999Y-17779999D01*
X109021591Y-17838985D01*
X108975026Y-17895724D01*
X108917324Y-18003677D01*
X108904454Y-18027754D01*
X108860997Y-18171015D01*
X108850000Y-18282668D01*
X108850000Y-18282678D01*
X108846324Y-18320000D01*
X108850000Y-18357322D01*
X108850001Y-26145197D01*
X107649003Y-27346196D01*
X107619999Y-27369999D01*
X107583891Y-27413997D01*
X107525026Y-27485724D01*
X107465562Y-27596972D01*
X107454454Y-27617754D01*
X107410997Y-27761015D01*
X107406219Y-27809522D01*
X107313574Y-27771147D01*
X107036335Y-27716000D01*
X106753665Y-27716000D01*
X106476426Y-27771147D01*
X106215273Y-27879320D01*
X105980241Y-28036363D01*
X105780363Y-28236241D01*
X105625000Y-28468759D01*
X105469637Y-28236241D01*
X105269759Y-28036363D01*
X105034727Y-27879320D01*
X104773574Y-27771147D01*
X104496335Y-27716000D01*
X104213665Y-27716000D01*
X103936426Y-27771147D01*
X103675273Y-27879320D01*
X103440241Y-28036363D01*
X103240363Y-28236241D01*
X103085000Y-28468759D01*
X102929637Y-28236241D01*
X102729759Y-28036363D01*
X102494727Y-27879320D01*
X102233574Y-27771147D01*
X101956335Y-27716000D01*
X101673665Y-27716000D01*
X101396426Y-27771147D01*
X101135273Y-27879320D01*
X100900241Y-28036363D01*
X100700363Y-28236241D01*
X100545000Y-28468759D01*
X100389637Y-28236241D01*
X100189759Y-28036363D01*
X99954727Y-27879320D01*
X99693574Y-27771147D01*
X99416335Y-27716000D01*
X99133665Y-27716000D01*
X98856426Y-27771147D01*
X98595273Y-27879320D01*
X98380000Y-28023160D01*
X98380000Y-15038840D01*
X98595273Y-15182680D01*
X98856426Y-15290853D01*
X99133665Y-15346000D01*
X99416335Y-15346000D01*
X99693574Y-15290853D01*
X99954727Y-15182680D01*
X100189759Y-15025637D01*
X100389637Y-14825759D01*
X100545000Y-14593241D01*
X100700363Y-14825759D01*
X100900241Y-15025637D01*
X101135273Y-15182680D01*
X101396426Y-15290853D01*
X101673665Y-15346000D01*
X101956335Y-15346000D01*
X102233574Y-15290853D01*
X102494727Y-15182680D01*
X102729759Y-15025637D01*
X102929637Y-14825759D01*
X103085000Y-14593241D01*
X103240363Y-14825759D01*
X103440241Y-15025637D01*
X103675273Y-15182680D01*
X103936426Y-15290853D01*
X104213665Y-15346000D01*
X104496335Y-15346000D01*
X104773574Y-15290853D01*
X105034727Y-15182680D01*
X105269759Y-15025637D01*
X105469637Y-14825759D01*
X105625000Y-14593241D01*
X105780363Y-14825759D01*
X105980241Y-15025637D01*
X106215273Y-15182680D01*
X106476426Y-15290853D01*
X106753665Y-15346000D01*
X107036335Y-15346000D01*
X107313574Y-15290853D01*
X107574727Y-15182680D01*
X107809759Y-15025637D01*
X108009637Y-14825759D01*
X108165000Y-14593241D01*
X108320363Y-14825759D01*
G04 #@! TA.AperFunction,Conductor*
D20*
G36*
X108320363Y-14825759D02*
G01*
X108520241Y-15025637D01*
X108572366Y-15060466D01*
X108475241Y-15125363D01*
X108275363Y-15325241D01*
X108118320Y-15560273D01*
X108010147Y-15821426D01*
X107955000Y-16098665D01*
X107955000Y-16381335D01*
X108010147Y-16658574D01*
X108118320Y-16919727D01*
X108275363Y-17154759D01*
X108475241Y-17354637D01*
X108710273Y-17511680D01*
X108971426Y-17619853D01*
X109191558Y-17663641D01*
X109099002Y-17756196D01*
X109069999Y-17779999D01*
X109021591Y-17838985D01*
X108975026Y-17895724D01*
X108917324Y-18003677D01*
X108904454Y-18027754D01*
X108860997Y-18171015D01*
X108850000Y-18282668D01*
X108850000Y-18282678D01*
X108846324Y-18320000D01*
X108850000Y-18357322D01*
X108850001Y-26145197D01*
X107649003Y-27346196D01*
X107619999Y-27369999D01*
X107583891Y-27413997D01*
X107525026Y-27485724D01*
X107465562Y-27596972D01*
X107454454Y-27617754D01*
X107410997Y-27761015D01*
X107406219Y-27809522D01*
X107313574Y-27771147D01*
X107036335Y-27716000D01*
X106753665Y-27716000D01*
X106476426Y-27771147D01*
X106215273Y-27879320D01*
X105980241Y-28036363D01*
X105780363Y-28236241D01*
X105625000Y-28468759D01*
X105469637Y-28236241D01*
X105269759Y-28036363D01*
X105034727Y-27879320D01*
X104773574Y-27771147D01*
X104496335Y-27716000D01*
X104213665Y-27716000D01*
X103936426Y-27771147D01*
X103675273Y-27879320D01*
X103440241Y-28036363D01*
X103240363Y-28236241D01*
X103085000Y-28468759D01*
X102929637Y-28236241D01*
X102729759Y-28036363D01*
X102494727Y-27879320D01*
X102233574Y-27771147D01*
X101956335Y-27716000D01*
X101673665Y-27716000D01*
X101396426Y-27771147D01*
X101135273Y-27879320D01*
X100900241Y-28036363D01*
X100700363Y-28236241D01*
X100545000Y-28468759D01*
X100389637Y-28236241D01*
X100189759Y-28036363D01*
X99954727Y-27879320D01*
X99693574Y-27771147D01*
X99416335Y-27716000D01*
X99133665Y-27716000D01*
X98856426Y-27771147D01*
X98595273Y-27879320D01*
X98380000Y-28023160D01*
X98380000Y-15038840D01*
X98595273Y-15182680D01*
X98856426Y-15290853D01*
X99133665Y-15346000D01*
X99416335Y-15346000D01*
X99693574Y-15290853D01*
X99954727Y-15182680D01*
X100189759Y-15025637D01*
X100389637Y-14825759D01*
X100545000Y-14593241D01*
X100700363Y-14825759D01*
X100900241Y-15025637D01*
X101135273Y-15182680D01*
X101396426Y-15290853D01*
X101673665Y-15346000D01*
X101956335Y-15346000D01*
X102233574Y-15290853D01*
X102494727Y-15182680D01*
X102729759Y-15025637D01*
X102929637Y-14825759D01*
X103085000Y-14593241D01*
X103240363Y-14825759D01*
X103440241Y-15025637D01*
X103675273Y-15182680D01*
X103936426Y-15290853D01*
X104213665Y-15346000D01*
X104496335Y-15346000D01*
X104773574Y-15290853D01*
X105034727Y-15182680D01*
X105269759Y-15025637D01*
X105469637Y-14825759D01*
X105625000Y-14593241D01*
X105780363Y-14825759D01*
X105980241Y-15025637D01*
X106215273Y-15182680D01*
X106476426Y-15290853D01*
X106753665Y-15346000D01*
X107036335Y-15346000D01*
X107313574Y-15290853D01*
X107574727Y-15182680D01*
X107809759Y-15025637D01*
X108009637Y-14825759D01*
X108165000Y-14593241D01*
X108320363Y-14825759D01*
G37*
G04 #@! TD.AperFunction*
D19*
X114859226Y-18278237D02*
X115028744Y-18391505D01*
X115217102Y-18469526D01*
X115417061Y-18509300D01*
X115620939Y-18509300D01*
X115820898Y-18469526D01*
X116009256Y-18391505D01*
X116178774Y-18278237D01*
X116250000Y-18207011D01*
X116250001Y-24945197D01*
X114004003Y-27191196D01*
X113974999Y-27214999D01*
X113929347Y-27270627D01*
X113880026Y-27330724D01*
X113832307Y-27420000D01*
X113809454Y-27462754D01*
X113765997Y-27606015D01*
X113755000Y-27717668D01*
X113755000Y-27717678D01*
X113751324Y-27755000D01*
X113755000Y-27792323D01*
X113755000Y-27932956D01*
X113600241Y-28036363D01*
X113400363Y-28236241D01*
X113245000Y-28468759D01*
X113089637Y-28236241D01*
X112889759Y-28036363D01*
X112737714Y-27934770D01*
X112738676Y-27924999D01*
X112735000Y-27887676D01*
X112735000Y-27887667D01*
X112724003Y-27776014D01*
X112680546Y-27632753D01*
X112609974Y-27500724D01*
X112515001Y-27384999D01*
X112486003Y-27361201D01*
X112480000Y-27355198D01*
X112480000Y-25275422D01*
X112566119Y-25327070D01*
X112830960Y-25421909D01*
X113053000Y-25300624D01*
X113053000Y-24157000D01*
X113307000Y-24157000D01*
X113307000Y-25300624D01*
X113529040Y-25421909D01*
X113793881Y-25327070D01*
X114035131Y-25182385D01*
X114243519Y-24993414D01*
X114411037Y-24767420D01*
X114531246Y-24513087D01*
X114571904Y-24379039D01*
X114449915Y-24157000D01*
X113307000Y-24157000D01*
X113053000Y-24157000D01*
X113033000Y-24157000D01*
X113033000Y-23903000D01*
X113053000Y-23903000D01*
X113053000Y-22759376D01*
X113307000Y-22759376D01*
X113307000Y-23903000D01*
X114449915Y-23903000D01*
X114571904Y-23680961D01*
X114531246Y-23546913D01*
X114411037Y-23292580D01*
X114243519Y-23066586D01*
X114035131Y-22877615D01*
X113793881Y-22732930D01*
X113529040Y-22638091D01*
X113307000Y-22759376D01*
X113053000Y-22759376D01*
X112830960Y-22638091D01*
X112566119Y-22732930D01*
X112480000Y-22784578D01*
X112480000Y-21079411D01*
X112526119Y-21107070D01*
X112790960Y-21201909D01*
X113013000Y-21080624D01*
X113013000Y-19937000D01*
X113267000Y-19937000D01*
X113267000Y-21080624D01*
X113489040Y-21201909D01*
X113753881Y-21107070D01*
X113995131Y-20962385D01*
X114203519Y-20773414D01*
X114371037Y-20547420D01*
X114491246Y-20293087D01*
X114531904Y-20159039D01*
X114409915Y-19937000D01*
X113267000Y-19937000D01*
X113013000Y-19937000D01*
X112993000Y-19937000D01*
X112993000Y-19683000D01*
X113013000Y-19683000D01*
X113013000Y-19663000D01*
X113267000Y-19663000D01*
X113267000Y-19683000D01*
X114409915Y-19683000D01*
X114531904Y-19460961D01*
X114491246Y-19326913D01*
X114371037Y-19072580D01*
X114203519Y-18846586D01*
X113995131Y-18657615D01*
X113753881Y-18512930D01*
X113715585Y-18499216D01*
X113734802Y-18480000D01*
X114122678Y-18480000D01*
X114160000Y-18483676D01*
X114197322Y-18480000D01*
X114197333Y-18480000D01*
X114308986Y-18469003D01*
X114452247Y-18425546D01*
X114584276Y-18354974D01*
X114700001Y-18260001D01*
X114723804Y-18230997D01*
X114767895Y-18186906D01*
X114859226Y-18278237D01*
G04 #@! TA.AperFunction,Conductor*
D20*
G36*
X114859226Y-18278237D02*
G01*
X115028744Y-18391505D01*
X115217102Y-18469526D01*
X115417061Y-18509300D01*
X115620939Y-18509300D01*
X115820898Y-18469526D01*
X116009256Y-18391505D01*
X116178774Y-18278237D01*
X116250000Y-18207011D01*
X116250001Y-24945197D01*
X114004003Y-27191196D01*
X113974999Y-27214999D01*
X113929347Y-27270627D01*
X113880026Y-27330724D01*
X113832307Y-27420000D01*
X113809454Y-27462754D01*
X113765997Y-27606015D01*
X113755000Y-27717668D01*
X113755000Y-27717678D01*
X113751324Y-27755000D01*
X113755000Y-27792323D01*
X113755000Y-27932956D01*
X113600241Y-28036363D01*
X113400363Y-28236241D01*
X113245000Y-28468759D01*
X113089637Y-28236241D01*
X112889759Y-28036363D01*
X112737714Y-27934770D01*
X112738676Y-27924999D01*
X112735000Y-27887676D01*
X112735000Y-27887667D01*
X112724003Y-27776014D01*
X112680546Y-27632753D01*
X112609974Y-27500724D01*
X112515001Y-27384999D01*
X112486003Y-27361201D01*
X112480000Y-27355198D01*
X112480000Y-25275422D01*
X112566119Y-25327070D01*
X112830960Y-25421909D01*
X113053000Y-25300624D01*
X113053000Y-24157000D01*
X113307000Y-24157000D01*
X113307000Y-25300624D01*
X113529040Y-25421909D01*
X113793881Y-25327070D01*
X114035131Y-25182385D01*
X114243519Y-24993414D01*
X114411037Y-24767420D01*
X114531246Y-24513087D01*
X114571904Y-24379039D01*
X114449915Y-24157000D01*
X113307000Y-24157000D01*
X113053000Y-24157000D01*
X113033000Y-24157000D01*
X113033000Y-23903000D01*
X113053000Y-23903000D01*
X113053000Y-22759376D01*
X113307000Y-22759376D01*
X113307000Y-23903000D01*
X114449915Y-23903000D01*
X114571904Y-23680961D01*
X114531246Y-23546913D01*
X114411037Y-23292580D01*
X114243519Y-23066586D01*
X114035131Y-22877615D01*
X113793881Y-22732930D01*
X113529040Y-22638091D01*
X113307000Y-22759376D01*
X113053000Y-22759376D01*
X112830960Y-22638091D01*
X112566119Y-22732930D01*
X112480000Y-22784578D01*
X112480000Y-21079411D01*
X112526119Y-21107070D01*
X112790960Y-21201909D01*
X113013000Y-21080624D01*
X113013000Y-19937000D01*
X113267000Y-19937000D01*
X113267000Y-21080624D01*
X113489040Y-21201909D01*
X113753881Y-21107070D01*
X113995131Y-20962385D01*
X114203519Y-20773414D01*
X114371037Y-20547420D01*
X114491246Y-20293087D01*
X114531904Y-20159039D01*
X114409915Y-19937000D01*
X113267000Y-19937000D01*
X113013000Y-19937000D01*
X112993000Y-19937000D01*
X112993000Y-19683000D01*
X113013000Y-19683000D01*
X113013000Y-19663000D01*
X113267000Y-19663000D01*
X113267000Y-19683000D01*
X114409915Y-19683000D01*
X114531904Y-19460961D01*
X114491246Y-19326913D01*
X114371037Y-19072580D01*
X114203519Y-18846586D01*
X113995131Y-18657615D01*
X113753881Y-18512930D01*
X113715585Y-18499216D01*
X113734802Y-18480000D01*
X114122678Y-18480000D01*
X114160000Y-18483676D01*
X114197322Y-18480000D01*
X114197333Y-18480000D01*
X114308986Y-18469003D01*
X114452247Y-18425546D01*
X114584276Y-18354974D01*
X114700001Y-18260001D01*
X114723804Y-18230997D01*
X114767895Y-18186906D01*
X114859226Y-18278237D01*
G37*
G04 #@! TD.AperFunction*
D19*
X143308320Y-19679727D02*
X143465363Y-19914759D01*
X143665241Y-20114637D01*
X143900273Y-20271680D01*
X144161426Y-20379853D01*
X144438665Y-20435000D01*
X144721335Y-20435000D01*
X144998574Y-20379853D01*
X145130000Y-20325415D01*
X145130000Y-20341877D01*
X145126324Y-20379200D01*
X145130000Y-20416522D01*
X145130000Y-20416532D01*
X145140997Y-20528185D01*
X145163068Y-20600944D01*
X145184454Y-20671446D01*
X145255026Y-20803476D01*
X145277626Y-20831014D01*
X145349999Y-20919201D01*
X145360401Y-20927738D01*
X145360400Y-25181928D01*
X143780000Y-25181928D01*
X143655518Y-25194188D01*
X143535820Y-25230498D01*
X143425506Y-25289463D01*
X143328815Y-25368815D01*
X143249463Y-25465506D01*
X143190498Y-25575820D01*
X143154188Y-25695518D01*
X143141928Y-25820000D01*
X143141928Y-25950871D01*
X143012385Y-25734869D01*
X142823414Y-25526481D01*
X142597420Y-25358963D01*
X142343087Y-25238754D01*
X142209039Y-25198096D01*
X141987000Y-25320085D01*
X141987000Y-26463000D01*
X142007000Y-26463000D01*
X142007000Y-26717000D01*
X141987000Y-26717000D01*
X141987000Y-26737000D01*
X141733000Y-26737000D01*
X141733000Y-26717000D01*
X141713000Y-26717000D01*
X141713000Y-26463000D01*
X141733000Y-26463000D01*
X141733000Y-25320085D01*
X141510961Y-25198096D01*
X141376913Y-25238754D01*
X141260000Y-25294012D01*
X141260000Y-20408072D01*
X142660000Y-20408072D01*
X142784482Y-20395812D01*
X142904180Y-20359502D01*
X143014494Y-20300537D01*
X143111185Y-20221185D01*
X143190537Y-20124494D01*
X143249502Y-20014180D01*
X143285812Y-19894482D01*
X143298072Y-19770000D01*
X143298072Y-19654986D01*
X143308320Y-19679727D01*
G04 #@! TA.AperFunction,Conductor*
D20*
G36*
X143308320Y-19679727D02*
G01*
X143465363Y-19914759D01*
X143665241Y-20114637D01*
X143900273Y-20271680D01*
X144161426Y-20379853D01*
X144438665Y-20435000D01*
X144721335Y-20435000D01*
X144998574Y-20379853D01*
X145130000Y-20325415D01*
X145130000Y-20341877D01*
X145126324Y-20379200D01*
X145130000Y-20416522D01*
X145130000Y-20416532D01*
X145140997Y-20528185D01*
X145163068Y-20600944D01*
X145184454Y-20671446D01*
X145255026Y-20803476D01*
X145277626Y-20831014D01*
X145349999Y-20919201D01*
X145360401Y-20927738D01*
X145360400Y-25181928D01*
X143780000Y-25181928D01*
X143655518Y-25194188D01*
X143535820Y-25230498D01*
X143425506Y-25289463D01*
X143328815Y-25368815D01*
X143249463Y-25465506D01*
X143190498Y-25575820D01*
X143154188Y-25695518D01*
X143141928Y-25820000D01*
X143141928Y-25950871D01*
X143012385Y-25734869D01*
X142823414Y-25526481D01*
X142597420Y-25358963D01*
X142343087Y-25238754D01*
X142209039Y-25198096D01*
X141987000Y-25320085D01*
X141987000Y-26463000D01*
X142007000Y-26463000D01*
X142007000Y-26717000D01*
X141987000Y-26717000D01*
X141987000Y-26737000D01*
X141733000Y-26737000D01*
X141733000Y-26717000D01*
X141713000Y-26717000D01*
X141713000Y-26463000D01*
X141733000Y-26463000D01*
X141733000Y-25320085D01*
X141510961Y-25198096D01*
X141376913Y-25238754D01*
X141260000Y-25294012D01*
X141260000Y-20408072D01*
X142660000Y-20408072D01*
X142784482Y-20395812D01*
X142904180Y-20359502D01*
X143014494Y-20300537D01*
X143111185Y-20221185D01*
X143190537Y-20124494D01*
X143249502Y-20014180D01*
X143285812Y-19894482D01*
X143298072Y-19770000D01*
X143298072Y-19654986D01*
X143308320Y-19679727D01*
G37*
G04 #@! TD.AperFunction*
D19*
X148590001Y-25964331D02*
X148452385Y-25734869D01*
X148263414Y-25526481D01*
X148037420Y-25358963D01*
X147783087Y-25238754D01*
X147649039Y-25198096D01*
X147427000Y-25320085D01*
X147427000Y-26463000D01*
X147447000Y-26463000D01*
X147447000Y-26717000D01*
X147427000Y-26717000D01*
X147427000Y-26737000D01*
X147173000Y-26737000D01*
X147173000Y-26717000D01*
X147153000Y-26717000D01*
X147153000Y-26463000D01*
X147173000Y-26463000D01*
X147173000Y-25320085D01*
X146950961Y-25198096D01*
X146880400Y-25219498D01*
X146880400Y-20646923D01*
X146884076Y-20609600D01*
X146880400Y-20572277D01*
X146880400Y-20572267D01*
X146869403Y-20460614D01*
X146853465Y-20408072D01*
X148100000Y-20408072D01*
X148224482Y-20395812D01*
X148344180Y-20359502D01*
X148454494Y-20300537D01*
X148551185Y-20221185D01*
X148590000Y-20173888D01*
X148590001Y-25964331D01*
G04 #@! TA.AperFunction,Conductor*
D20*
G36*
X148590001Y-25964331D02*
G01*
X148452385Y-25734869D01*
X148263414Y-25526481D01*
X148037420Y-25358963D01*
X147783087Y-25238754D01*
X147649039Y-25198096D01*
X147427000Y-25320085D01*
X147427000Y-26463000D01*
X147447000Y-26463000D01*
X147447000Y-26717000D01*
X147427000Y-26717000D01*
X147427000Y-26737000D01*
X147173000Y-26737000D01*
X147173000Y-26717000D01*
X147153000Y-26717000D01*
X147153000Y-26463000D01*
X147173000Y-26463000D01*
X147173000Y-25320085D01*
X146950961Y-25198096D01*
X146880400Y-25219498D01*
X146880400Y-20646923D01*
X146884076Y-20609600D01*
X146880400Y-20572277D01*
X146880400Y-20572267D01*
X146869403Y-20460614D01*
X146853465Y-20408072D01*
X148100000Y-20408072D01*
X148224482Y-20395812D01*
X148344180Y-20359502D01*
X148454494Y-20300537D01*
X148551185Y-20221185D01*
X148590000Y-20173888D01*
X148590001Y-25964331D01*
G37*
G04 #@! TD.AperFunction*
D19*
X131615026Y-17644276D02*
X131677172Y-17720000D01*
X131710000Y-17760001D01*
X131738998Y-17783799D01*
X131976196Y-18020997D01*
X131999999Y-18050001D01*
X132115724Y-18144974D01*
X132247753Y-18215546D01*
X132291928Y-18228946D01*
X132291928Y-19760000D01*
X132304188Y-19884482D01*
X132340498Y-20004180D01*
X132399463Y-20114494D01*
X132478815Y-20211185D01*
X132575506Y-20290537D01*
X132685820Y-20349502D01*
X132805518Y-20385812D01*
X132930000Y-20398072D01*
X134530000Y-20398072D01*
X134654482Y-20385812D01*
X134774180Y-20349502D01*
X134884494Y-20290537D01*
X134981185Y-20211185D01*
X135060537Y-20114494D01*
X135077327Y-20083082D01*
X135099463Y-20124494D01*
X135178815Y-20221185D01*
X135275506Y-20300537D01*
X135385820Y-20359502D01*
X135505518Y-20395812D01*
X135630000Y-20408072D01*
X137230000Y-20408072D01*
X137354482Y-20395812D01*
X137474180Y-20359502D01*
X137584494Y-20300537D01*
X137681185Y-20221185D01*
X137760537Y-20124494D01*
X137819502Y-20014180D01*
X137855812Y-19894482D01*
X137868072Y-19770000D01*
X137868072Y-19679128D01*
X137868320Y-19679727D01*
X138025363Y-19914759D01*
X138225241Y-20114637D01*
X138460273Y-20271680D01*
X138721426Y-20379853D01*
X138998665Y-20435000D01*
X139281335Y-20435000D01*
X139558574Y-20379853D01*
X139740000Y-20304704D01*
X139740001Y-25181928D01*
X138340000Y-25181928D01*
X138215518Y-25194188D01*
X138095820Y-25230498D01*
X137985506Y-25289463D01*
X137889640Y-25368138D01*
X137102154Y-24580652D01*
X137078351Y-24551649D01*
X136962626Y-24456676D01*
X136830597Y-24386104D01*
X136687336Y-24342647D01*
X136575683Y-24331650D01*
X136575672Y-24331650D01*
X136538350Y-24327974D01*
X136501028Y-24331650D01*
X129515672Y-24331650D01*
X129478349Y-24327974D01*
X129441026Y-24331650D01*
X129441017Y-24331650D01*
X129329364Y-24342647D01*
X129186103Y-24386104D01*
X129054074Y-24456676D01*
X128938349Y-24551649D01*
X128914551Y-24580647D01*
X128713886Y-24781312D01*
X128531335Y-24745000D01*
X128248665Y-24745000D01*
X128066114Y-24781312D01*
X127770000Y-24485199D01*
X127770000Y-23186420D01*
X127971426Y-23269853D01*
X128248665Y-23325000D01*
X128531335Y-23325000D01*
X128808574Y-23269853D01*
X129069727Y-23161680D01*
X129304759Y-23004637D01*
X129504637Y-22804759D01*
X129661680Y-22569727D01*
X129769853Y-22308574D01*
X129825000Y-22031335D01*
X129825000Y-21748665D01*
X129769853Y-21471426D01*
X129661680Y-21210273D01*
X129504637Y-20975241D01*
X129304759Y-20775363D01*
X129069727Y-20618320D01*
X128808574Y-20510147D01*
X128596783Y-20468019D01*
X131501003Y-17563799D01*
X131530001Y-17540001D01*
X131547738Y-17518389D01*
X131615026Y-17644276D01*
G04 #@! TA.AperFunction,Conductor*
D20*
G36*
X131615026Y-17644276D02*
G01*
X131677172Y-17720000D01*
X131710000Y-17760001D01*
X131738998Y-17783799D01*
X131976196Y-18020997D01*
X131999999Y-18050001D01*
X132115724Y-18144974D01*
X132247753Y-18215546D01*
X132291928Y-18228946D01*
X132291928Y-19760000D01*
X132304188Y-19884482D01*
X132340498Y-20004180D01*
X132399463Y-20114494D01*
X132478815Y-20211185D01*
X132575506Y-20290537D01*
X132685820Y-20349502D01*
X132805518Y-20385812D01*
X132930000Y-20398072D01*
X134530000Y-20398072D01*
X134654482Y-20385812D01*
X134774180Y-20349502D01*
X134884494Y-20290537D01*
X134981185Y-20211185D01*
X135060537Y-20114494D01*
X135077327Y-20083082D01*
X135099463Y-20124494D01*
X135178815Y-20221185D01*
X135275506Y-20300537D01*
X135385820Y-20359502D01*
X135505518Y-20395812D01*
X135630000Y-20408072D01*
X137230000Y-20408072D01*
X137354482Y-20395812D01*
X137474180Y-20359502D01*
X137584494Y-20300537D01*
X137681185Y-20221185D01*
X137760537Y-20124494D01*
X137819502Y-20014180D01*
X137855812Y-19894482D01*
X137868072Y-19770000D01*
X137868072Y-19679128D01*
X137868320Y-19679727D01*
X138025363Y-19914759D01*
X138225241Y-20114637D01*
X138460273Y-20271680D01*
X138721426Y-20379853D01*
X138998665Y-20435000D01*
X139281335Y-20435000D01*
X139558574Y-20379853D01*
X139740000Y-20304704D01*
X139740001Y-25181928D01*
X138340000Y-25181928D01*
X138215518Y-25194188D01*
X138095820Y-25230498D01*
X137985506Y-25289463D01*
X137889640Y-25368138D01*
X137102154Y-24580652D01*
X137078351Y-24551649D01*
X136962626Y-24456676D01*
X136830597Y-24386104D01*
X136687336Y-24342647D01*
X136575683Y-24331650D01*
X136575672Y-24331650D01*
X136538350Y-24327974D01*
X136501028Y-24331650D01*
X129515672Y-24331650D01*
X129478349Y-24327974D01*
X129441026Y-24331650D01*
X129441017Y-24331650D01*
X129329364Y-24342647D01*
X129186103Y-24386104D01*
X129054074Y-24456676D01*
X128938349Y-24551649D01*
X128914551Y-24580647D01*
X128713886Y-24781312D01*
X128531335Y-24745000D01*
X128248665Y-24745000D01*
X128066114Y-24781312D01*
X127770000Y-24485199D01*
X127770000Y-23186420D01*
X127971426Y-23269853D01*
X128248665Y-23325000D01*
X128531335Y-23325000D01*
X128808574Y-23269853D01*
X129069727Y-23161680D01*
X129304759Y-23004637D01*
X129504637Y-22804759D01*
X129661680Y-22569727D01*
X129769853Y-22308574D01*
X129825000Y-22031335D01*
X129825000Y-21748665D01*
X129769853Y-21471426D01*
X129661680Y-21210273D01*
X129504637Y-20975241D01*
X129304759Y-20775363D01*
X129069727Y-20618320D01*
X128808574Y-20510147D01*
X128596783Y-20468019D01*
X131501003Y-17563799D01*
X131530001Y-17540001D01*
X131547738Y-17518389D01*
X131615026Y-17644276D01*
G37*
G04 #@! TD.AperFunction*
M02*
